<mxfile host="app.diagrams.net" modified="2021-05-30T11:18:38.491Z" agent="5.0 (Windows NT 10.0; Win64; x64) AppleWebKit/537.36 (KHTML, like Gecko) Chrome/91.0.4472.77 Safari/537.36" etag="sSO7zEi-qK_rzQ7mlhmO" version="14.7.3" type="github">
  <diagram id="4s4dy5zTYV2nVkHfsZdx" name="Page-1">
    <mxGraphModel dx="840" dy="468" grid="1" gridSize="10" guides="1" tooltips="1" connect="1" arrows="1" fold="1" page="1" pageScale="1" pageWidth="850" pageHeight="1100" math="0" shadow="0">
      <root>
        <mxCell id="0" />
        <mxCell id="1" parent="0" />
        <mxCell id="bx7U45b8-NqOWbFdBG4M-2" value="" style="swimlane;startSize=250;" vertex="1" parent="1">
          <mxGeometry x="340" y="50" width="210" height="290" as="geometry" />
        </mxCell>
        <mxCell id="bx7U45b8-NqOWbFdBG4M-4" value="Library" style="text;html=1;align=center;verticalAlign=middle;resizable=0;points=[];autosize=1;strokeColor=none;" vertex="1" parent="bx7U45b8-NqOWbFdBG4M-2">
          <mxGeometry x="20" y="260" width="50" height="20" as="geometry" />
        </mxCell>
        <mxCell id="bx7U45b8-NqOWbFdBG4M-5" value="Dependency" style="text;html=1;align=center;verticalAlign=middle;resizable=0;points=[];autosize=1;strokeColor=none;" vertex="1" parent="bx7U45b8-NqOWbFdBG4M-2">
          <mxGeometry x="110" y="260" width="80" height="20" as="geometry" />
        </mxCell>
        <mxCell id="bx7U45b8-NqOWbFdBG4M-3" value="" style="line;strokeWidth=2;direction=south;html=1;" vertex="1" parent="1">
          <mxGeometry x="430" y="300" width="10" height="40" as="geometry" />
        </mxCell>
        <mxCell id="bx7U45b8-NqOWbFdBG4M-6" value="Ubuntu APP" style="ellipse;whiteSpace=wrap;html=1;" vertex="1" parent="1">
          <mxGeometry x="210" y="30" width="90" height="80" as="geometry" />
        </mxCell>
        <mxCell id="bx7U45b8-NqOWbFdBG4M-7" value="RHEL App" style="ellipse;whiteSpace=wrap;html=1;" vertex="1" parent="1">
          <mxGeometry x="200" y="200" width="90" height="80" as="geometry" />
        </mxCell>
        <mxCell id="bx7U45b8-NqOWbFdBG4M-8" value="Linux&lt;br&gt;" style="text;html=1;align=center;verticalAlign=middle;resizable=0;points=[];autosize=1;strokeColor=none;" vertex="1" parent="1">
          <mxGeometry x="415" y="20" width="40" height="20" as="geometry" />
        </mxCell>
      </root>
    </mxGraphModel>
  </diagram>
</mxfile>
